<svg xmlns="http://www.w3.org/2000/svg" viewBox="0 0 900 300" width="100%" height="100%">
  <defs>
    <linearGradient id="magicBg" x1="0%" y1="0%" x2="100%" y2="100%">
      <stop offset="0%" stop-color="#130f0c" />
      <stop offset="50%" stop-color="#1f1610" />
      <stop offset="100%" stop-color="#0d1310" />
    </linearGradient>
    
    <linearGradient id="gold" x1="0%" y1="0%" x2="100%" y2="100%">
      <stop offset="0%" stop-color="#b8860b" />
      <stop offset="25%" stop-color="#e6ca65" />
      <stop offset="50%" stop-color="#996515" />
      <stop offset="75%" stop-color="#f3e5ab" />
      <stop offset="100%" stop-color="#8a640f" />
    </linearGradient>

    <style>
      .title { font-family: 'Georgia', 'Times New Roman', serif; font-size: 46px; fill: url(#gold); letter-spacing: 3px; text-anchor: middle; font-weight: 500; }
      .subtitle { font-family: 'Courier New', Courier, monospace; font-size: 16px; fill: #e2d1b6; letter-spacing: 8px; text-anchor: middle; font-weight: bold; opacity: 0.9; }
      .details { fill: url(#gold); opacity: 0.75; }
    </style>
  </defs>

  <rect width="900" height="300" fill="url(#magicBg)" />

  <g fill="#e6ca65" opacity="0.3">
    <circle cx="150" cy="70" r="1.5" />
    <circle cx="280" cy="220" r="1" />
    <circle cx="450" cy="40" r="2" />
    <circle cx="620" cy="240" r="1.5" />
    <circle cx="780" cy="80" r="1" />
    <circle cx="830" cy="190" r="2" />
  </g>

  <rect x="15" y="15" width="870" height="270" fill="none" stroke="url(#gold)" stroke-width="3" rx="4" />
  <rect x="22" y="22" width="856" height="256" fill="none" stroke="url(#gold)" stroke-width="1" opacity="0.4" />
  
  <g stroke="url(#gold)" stroke-width="1.5" fill="none">
    <path d="M 15 45 L 45 15 M 15 30 L 30 15 M 15 60 L 60 15" />
    <circle cx="28" cy="28" r="3" fill="url(#gold)"/>
    <path d="M 885 45 L 855 15 M 885 30 L 870 15 M 885 60 L 840 15" />
    <circle cx="872" cy="28" r="3" fill="url(#gold)"/>
    <path d="M 15 255 L 45 285 M 15 270 L 30 285 M 15 240 L 60 285" />
    <circle cx="28" cy="272" r="3" fill="url(#gold)"/>
    <path d="M 885 255 L 855 285 M 885 270 L 870 285 M 885 240 L 840 285" />
    <circle cx="872" cy="272" r="3" fill="url(#gold)"/>
  </g>

  <g class="details" transform="translate(130, 145) scale(0.85)">
    <path d="M -20,-40 A 30 30 0 1 0 20,20 A 24 24 0 1 1 -20,-40 Z" />
    <path d="M -10,35 C -5,35 0,25 2,10 C 4,-5 2,-15 4,-25 C 5,-30 2,-38 6,-45 C 9,-42 11,-36 13,-36 C 17,-36 19,-40 21,-45 C 20,-35 16,-25 18,-12 C 20,0 26,18 28,35 C 32,35 34,38 31,45 C 22,48 -13,48 -17,42 C -16,38 -13,35 -10,35 Z" />
    <path d="M -35,-15 Q -35,-25 -45,-25 Q -35,-25 -35,-35 Q -35,-25 -25,-25 Q -35,-25 -35,-15 Z" />
  </g>

  <g transform="translate(450, 140)">
    <text class="title" y="0">Mayara Vieira</text>
    
    <path d="M -160 20 L 160 20" stroke="url(#gold)" stroke-width="1.5" />
    <polygon points="0,16 -6,20 0,24 6,20" fill="url(#gold)" />
    <circle cx="-60" cy="20" r="2.5" fill="url(#gold)"/>
    <circle cx="60" cy="20" r="2.5" fill="url(#gold)"/>
    
    <text class="subtitle" y="55">DEV ◆ DADOS ◆ IA</text>
  </g>

  <g class="details" transform="translate(770, 145) scale(0.85)">
    <path d="M -35,-15 C -15,-25 0,-20 0,-20 C 0,-20 15,-25 35,-15 L 35,25 C 15,15 0,20 0,20 C 0,20 -15,15 -35,25 Z" fill="none" stroke="url(#gold)" stroke-width="2.5" stroke-linejoin="round" />
    <path d="M 0,-20 L 0,20" stroke="url(#gold)" stroke-width="2" />
    <path d="M 45,25 Q 50,0 40,-20 M 45,10 Q 55,5 50,-2" fill="none" stroke="url(#gold)" stroke-width="1.5" stroke-linecap="round"/>
    <path d="M -45,25 Q -50,0 -40,-20 M -45,10 Q -55,5 -50,-2" fill="none" stroke="url(#gold)" stroke-width="1.5" stroke-linecap="round"/>
    <path d="M 0,-40 Q 0,-45 -5,-45 Q 0,-45 0,-50 Q 0,-45 5,-45 Q 0,-45 0,-40 Z" />
  </g>
</svg>
